# xmcd CD database file
#
# Track frame offsets:
#	150
#	13786
#	30393
#	44560
#	59334
#	72595
#	87147
#	103726
#	120683
#	136520
#	149771
#	164250
#	179410
#	194075
#	207071
#	219200
#	231007
#	248280
#	263028
#	279365
#	293403
#	308514
#	321910
#	336334
#
# Disc length: 4704 seconds
#
# Revision: 0
# Processed by: cddbd v1.5.2PL0 Copyright (c) Steve Scherf et al.
# Submitted via: CDex 1.70beta2
#
DISCID=5b125e18
DTITLE=Oscar Peterson - Strike Up The Band - CD 2
DYEAR=1900
DGENRE=Jazz
TTITLE0=Cheek To Cheek
TTITLE1=Just A-Sittin´ and A-Rockin´  1
TTITLE2=What Is This Thing Called Love
TTITLE3=Prelude To A Kiss
TTITLE4=Fascination Rhythm 1
TTITLE5=Easter Parade
TTITLE6=Night and Day
TTITLE7=Long Ago And Far Away
TTITLE8=The Man I Love
TTITLE9=Fascination Rhythm 2
TTITLE10=It Ain´t Necessarily So 
TTITLE11=Somebody Loves Me
TTITLE12=Strike Up The Band
TTITLE13=I´ve Got A Crush On You
TTITLE14=I Was Doing All Right
TTITLE15=´s Wonderful
TTITLE16=Oh, Lady Be Good
TTITLE17=I Got Rhythm
TTITLE18=A Foggy Day
TTITLE19=Love Walked In
TTITLE20=John Hardy´s Wife
TTITLE21=Sophisticated Lady
TTITLE22=Things Ain´t What They Used To Be
TTITLE23=Just A-Stting´ and A-Rockin´  2
EXTD=
EXTT0=
EXTT1=
EXTT2=
EXTT3=
EXTT4=
EXTT5=
EXTT6=
EXTT7=
EXTT8=
EXTT9=
EXTT10=
EXTT11=
EXTT12=
EXTT13=
EXTT14=
EXTT15=
EXTT16=
EXTT17=
EXTT18=
EXTT19=
EXTT20=
EXTT21=
EXTT22=
EXTT23=
PLAYORDER=
